<?xml version="1.0" standalone="no"?>
<!DOCTYPE svg PUBLIC "-//W3C//DTD SVG 20010904//EN"
 "http://www.w3.org/TR/2001/REC-SVG-20010904/DTD/svg10.dtd">
<svg version="1.0" xmlns="http://www.w3.org/2000/svg"
 width="512.000000pt" height="512.000000pt" viewBox="0 0 512.000000 512.000000"
 preserveAspectRatio="xMidYMid meet">

<g transform="translate(0.000000,512.000000) scale(0.100000,-0.100000)"
fill="#133e87" stroke="none">
<path d="M2335 5109 c-381 -33 -780 -165 -1109 -366 -330 -203 -646 -519 -849
-849 -499 -814 -499 -1854 0 -2668 203 -330 519 -646 849 -849 814 -499 1854
-499 2668 0 168 103 317 223 472 377 206 206 357 414 480 657 395 787 356
1734 -103 2483 -203 330 -519 646 -849 849 -462 283 -1014 412 -1559 366z
m-1296 -1876 l44 -6 -6 -88 c-4 -49 -10 -171 -13 -272 l-7 -184 48 -6 c26 -4
129 -7 228 -7 l180 0 -6 203 c-4 124 -12 229 -21 272 -9 38 -16 73 -16 76 0 4
39 11 87 18 65 8 110 8 176 0 l88 -12 -8 -151 c-4 -83 -8 -349 -8 -591 1 -384
3 -449 18 -509 10 -38 16 -71 14 -73 -14 -13 -137 -24 -217 -20 -141 9 -134 2
-127 116 4 53 10 176 13 274 l7 177 -228 0 -228 0 6 -207 c4 -145 11 -227 22
-271 10 -35 15 -65 13 -68 -15 -14 -136 -26 -218 -21 -142 9 -132 -4 -123 151
4 72 8 336 8 586 0 394 -2 463 -17 515 -9 33 -18 67 -20 75 -7 31 164 44 311
23z m1841 -10 c36 -8 90 -27 120 -41 55 -27 55 -27 58 -77 3 -59 -24 -154 -63
-220 l-26 -46 -88 83 c-89 85 -194 148 -246 148 -66 0 -138 -60 -151 -126 -9
-50 16 -108 107 -243 89 -133 220 -297 234 -293 13 3 32 79 44 170 5 41 12 76
14 79 3 3 78 7 167 10 l162 6 -45 -69 c-48 -75 -197 -349 -197 -363 0 -13 177
-179 245 -229 33 -24 62 -46 65 -48 20 -20 -164 -73 -278 -80 l-98 -7 -63 66
-64 67 -30 -26 c-94 -79 -231 -118 -392 -111 -125 5 -188 26 -263 92 -115 100
-141 269 -65 419 34 66 123 153 200 193 l61 33 -33 62 c-70 132 -81 242 -36
340 54 113 194 203 355 229 67 10 224 1 306 -18z m1370 -9 c52 -13 100 -30
107 -36 25 -26 -21 -223 -66 -279 l-17 -21 -89 51 c-115 66 -229 113 -285 118
-38 4 -52 0 -92 -27 -118 -78 -198 -261 -198 -451 0 -212 65 -346 198 -409
103 -50 342 -32 487 36 33 16 64 28 69 29 9 0 36 -78 36 -108 0 -29 -107 -123
-190 -166 -112 -59 -204 -81 -330 -81 -182 0 -305 45 -410 150 -128 128 -185
334 -161 576 13 125 32 196 77 288 84 167 205 273 382 330 121 40 321 40 482
0z"/>
<path d="M2346 2421 c-39 -56 -55 -106 -56 -174 0 -115 55 -178 165 -185 70
-5 122 8 178 44 l38 25 -23 28 c-95 117 -253 297 -263 299 -6 2 -24 -15 -39
-37z"/>
</g>
</svg>
